<svg xmlns="http://www.w3.org/2000/svg" viewBox="0 0 300 180" width="300" height="180">
  <defs>
    <linearGradient id="grad1" x1="0%" y1="0%" x2="100%" y2="100%">
      <stop offset="0%" style="stop-color:#AC6AFF;stop-opacity:0.3" />
      <stop offset="100%" style="stop-color:#7B68EE;stop-opacity:0.1" />
    </linearGradient>
  </defs>
  <!-- Background -->
  <rect width="300" height="180" rx="12" fill="url(#grad1)" />
  <!-- Grid lines -->
  <line x1="0" y1="45" x2="300" y2="45" stroke="#AC6AFF" stroke-opacity="0.2" stroke-width="1"/>
  <line x1="0" y1="90" x2="300" y2="90" stroke="#AC6AFF" stroke-opacity="0.2" stroke-width="1"/>
  <line x1="0" y1="135" x2="300" y2="135" stroke="#AC6AFF" stroke-opacity="0.2" stroke-width="1"/>
  <!-- Central hub -->
  <circle cx="150" cy="90" r="22" fill="none" stroke="#AC6AFF" stroke-width="2.5"/>
  <circle cx="150" cy="90" r="14" fill="#AC6AFF" fill-opacity="0.6"/>
  <!-- Connection nodes -->
  <circle cx="50" cy="45" r="10" fill="none" stroke="#7B68EE" stroke-width="2"/>
  <circle cx="50" cy="45" r="5" fill="#7B68EE"/>
  <circle cx="250" cy="45" r="10" fill="none" stroke="#7B68EE" stroke-width="2"/>
  <circle cx="250" cy="45" r="5" fill="#7B68EE"/>
  <circle cx="50" cy="135" r="10" fill="none" stroke="#7B68EE" stroke-width="2"/>
  <circle cx="50" cy="135" r="5" fill="#7B68EE"/>
  <circle cx="250" cy="135" r="10" fill="none" stroke="#7B68EE" stroke-width="2"/>
  <circle cx="250" cy="135" r="5" fill="#7B68EE"/>
  <circle cx="30" cy="90" r="8" fill="none" stroke="#AC6AFF" stroke-width="2"/>
  <circle cx="270" cy="90" r="8" fill="none" stroke="#AC6AFF" stroke-width="2"/>
  <!-- Lines from hub to nodes -->
  <line x1="128" y1="76" x2="62" y2="50" stroke="#AC6AFF" stroke-opacity="0.7" stroke-width="1.5" stroke-dasharray="5,3"/>
  <line x1="172" y1="76" x2="238" y2="50" stroke="#AC6AFF" stroke-opacity="0.7" stroke-width="1.5" stroke-dasharray="5,3"/>
  <line x1="128" y1="104" x2="62" y2="130" stroke="#AC6AFF" stroke-opacity="0.7" stroke-width="1.5" stroke-dasharray="5,3"/>
  <line x1="172" y1="104" x2="238" y2="130" stroke="#AC6AFF" stroke-opacity="0.7" stroke-width="1.5" stroke-dasharray="5,3"/>
  <line x1="128" y1="90" x2="38" y2="90" stroke="#AC6AFF" stroke-opacity="0.7" stroke-width="1.5" stroke-dasharray="5,3"/>
  <line x1="172" y1="90" x2="262" y2="90" stroke="#AC6AFF" stroke-opacity="0.7" stroke-width="1.5" stroke-dasharray="5,3"/>
  <!-- Protocol labels -->
  <text x="50" y="30" text-anchor="middle" fill="#AC6AFF" font-size="8" font-family="sans-serif">MQTT</text>
  <text x="250" y="30" text-anchor="middle" fill="#AC6AFF" font-size="8" font-family="sans-serif">HTTP</text>
  <text x="15" y="94" text-anchor="middle" fill="#AC6AFF" font-size="7" font-family="sans-serif">IoT</text>
  <text x="285" y="94" text-anchor="middle" fill="#AC6AFF" font-size="7" font-family="sans-serif">API</text>
  <text x="50" y="158" text-anchor="middle" fill="#AC6AFF" font-size="8" font-family="sans-serif">BLE</text>
  <text x="250" y="158" text-anchor="middle" fill="#AC6AFF" font-size="8" font-family="sans-serif">TCP</text>
</svg>
